<svg width="11" height="11" viewBox="0 0 11 11" fill="none" xmlns="http://www.w3.org/2000/svg">
<path id="Vector" d="M6.18826 10.3874C6.12251 10.3152 6.08559 10.2174 6.08559 10.1153C6.08559 10.0133 6.12251 9.91546 6.18826 9.84328L9.80139 5.88037L0.351073 5.88037C0.257963 5.88037 0.168666 5.8398 0.102827 5.7676C0.0369871 5.6954 -2.22818e-07 5.59748 -2.18354e-07 5.49537C-2.13891e-07 5.39326 0.0369871 5.29533 0.102827 5.22313C0.168666 5.15093 0.257963 5.11037 0.351073 5.11037L9.80139 5.11037L6.18826 1.14746C6.12625 1.07448 6.09248 0.977946 6.09409 0.878206C6.09569 0.778465 6.13254 0.683301 6.19686 0.612763C6.26118 0.542225 6.34796 0.50182 6.43892 0.50006C6.52987 0.4983 6.61789 0.535323 6.68444 0.603329L10.8973 5.2233C10.9631 5.29549 11 5.39334 11 5.49537C11 5.59739 10.9631 5.69525 10.8973 5.76743L6.68444 10.3874C6.61862 10.4595 6.52939 10.5 6.43635 10.5C6.34332 10.5 6.25409 10.4595 6.18826 10.3874Z" fill="#07EAD3"/>
</svg>
