<svg width="25" height="21" viewBox="0 0 25 21" fill="none" xmlns="http://www.w3.org/2000/svg">
<path id="Vector" d="M13.8999 20.1718C13.7539 20.0286 13.6719 19.8344 13.6719 19.6319C13.6719 19.4294 13.7539 19.2352 13.8999 19.092L21.9229 11.2272L0.938217 11.2272C0.731462 11.2272 0.533176 11.1467 0.386978 11.0034C0.240779 10.8601 0.158647 10.6658 0.158647 10.4631C0.158647 10.2605 0.240779 10.0661 0.386978 9.92284C0.533176 9.77955 0.731462 9.69905 0.938217 9.69905L21.9229 9.69905L13.8999 1.83426C13.7622 1.68942 13.6872 1.49785 13.6908 1.2999C13.6943 1.10196 13.7761 0.913096 13.919 0.773106C14.0618 0.633115 14.2545 0.552928 14.4564 0.549435C14.6584 0.545942 14.8539 0.619418 15.0017 0.754383L24.3565 9.92317C24.5025 10.0664 24.5845 10.2606 24.5845 10.4631C24.5845 10.6656 24.5025 10.8598 24.3565 11.0031L15.0016 20.1718C14.8555 20.3149 14.6573 20.3953 14.4508 20.3953C14.2442 20.3953 14.046 20.3149 13.8999 20.1718Z" fill="white"/>
</svg>
