<svg width="15" height="16" viewBox="0 0 15 16" fill="none" xmlns="http://www.w3.org/2000/svg">
<g id="user/circle" clip-path="url(#clip0_108_437)">
<path id="Icon" d="M12.2548 12.246C12.0069 11.7604 11.6798 11.3047 11.2734 10.8983C9.18942 8.81434 5.81066 8.81434 3.7267 10.8983C3.32029 11.3047 2.99314 11.7604 2.74525 12.246M0.625 7.75C0.625 3.95304 3.70304 0.875 7.5 0.875C11.297 0.875 14.375 3.95304 14.375 7.75C14.375 11.547 11.297 14.625 7.5 14.625C3.70304 14.625 0.625 11.547 0.625 7.75ZM10 6.5C10 7.88071 8.88071 9 7.5 9C6.11929 9 5 7.88071 5 6.5C5 5.11929 6.11929 4 7.5 4C8.88071 4 10 5.11929 10 6.5Z" stroke="#E6EAED" stroke-width="1.125"/>
</g>
<defs>
<clipPath id="clip0_108_437">
<rect width="15" height="15" fill="white" transform="translate(0 0.25)"/>
</clipPath>
</defs>
</svg>
