<svg width="16" height="16" viewBox="0 0 16 16" fill="none" xmlns="http://www.w3.org/2000/svg">
<g id="Frame 1249186592">
<rect width="16" height="16" rx="8" fill="white" fill-opacity="0.05"/>
<path id="Vector" d="M4 4C4.13261 3.86739 4.31246 3.79289 4.5 3.79289C4.68754 3.79289 4.86739 3.86739 5 4L8 7L11 4C11.1326 3.86739 11.3125 3.79289 11.5 3.79289C11.6875 3.79289 11.8674 3.86739 12 4C12.1326 4.13261 12.2071 4.31246 12.2071 4.5C12.2071 4.68754 12.1326 4.86739 12 5L9 8L12 11C12.1326 11.1326 12.2071 11.3125 12.2071 11.5C12.2071 11.6875 12.1326 11.8674 12 12C11.8674 12.1326 11.6875 12.2071 11.5 12.2071C11.3125 12.2071 11.1326 12.1326 11 12L8 9L5 12C4.86739 12.1326 4.68754 12.2071 4.5 12.2071C4.31246 12.2071 4.13261 12.1326 4 12C3.86739 11.8674 3.79289 11.6875 3.79289 11.5C3.79289 11.3125 3.86739 11.1326 4 11L7 8L4 5C3.86739 4.86739 3.79289 4.68754 3.79289 4.5C3.79289 4.31246 3.86739 4.13261 4 4Z" fill="#07EAD3"/>
</g>
</svg>
