<svg width="110" height="17" viewBox="0 0 110 17" fill="none" xmlns="http://www.w3.org/2000/svg">
    <g id="Vector">
        <path d="M61.6617 16.0879H64.4829V9.99524H71.2662V7.54175H64.4829V3.74348H73.0858V1.29513H61.6617V16.0879Z"
            fill="white" />
        <path d="M79.4967 1.29513H76.6757V16.0879H85.6173V13.6395H79.4967V1.29513Z" fill="white" />
        <path d="M91.9166 1.29513H89.0956V16.0879H91.9166V1.29513Z" fill="white" />
        <path
            d="M104.765 8.81982H98.9274V3.74347H104.765C105.424 3.83442 106.026 4.14067 106.461 4.6065C106.896 5.07233 107.135 5.66677 107.135 6.28165C107.135 6.89652 106.896 7.49095 106.461 7.95678C106.026 8.42261 105.424 8.72887 104.765 8.81982ZM104.765 1.29513H96.1062V16.0879H98.9274V11.2682H104.765C106.168 11.2266 107.5 10.6831 108.477 9.75243C109.454 8.82181 110 7.57713 110 6.28165C110 4.98616 109.454 3.74148 108.477 2.81086C107.5 1.88024 106.168 1.33667 104.765 1.29513Z"
            fill="white" />
        <path
            d="M8.58702 14.1476C7.66113 14.1482 6.74864 13.9436 5.92632 13.5511C5.10399 13.1586 4.39589 12.5897 3.86158 11.8922C3.32727 11.1947 2.98239 10.3891 2.85593 9.54303C2.72947 8.69699 2.82515 7.83531 3.13492 7.03048C3.44468 6.22565 3.95946 5.50122 4.63596 4.91812C5.31246 4.33502 6.13089 3.91031 7.0224 3.67973C7.9139 3.44915 8.85241 3.41944 9.75895 3.59309C10.6655 3.76675 11.5136 4.13869 12.2318 4.67763L14.0125 2.66044C12.7509 1.71673 11.2253 1.12198 9.61235 0.945082C7.99941 0.768188 6.36514 1.01638 4.89882 1.66091C3.43251 2.30545 2.19413 3.31997 1.32714 4.58695C0.460142 5.85393 0 7.32154 0 8.81981C0 10.3181 0.460142 11.7857 1.32714 13.0526C2.19413 14.3196 3.43251 15.3341 4.89882 15.9787C6.36514 16.6232 7.99941 16.8714 9.61235 16.6945C11.2253 16.5176 12.7509 15.9229 14.0125 14.9792L12.2318 12.9568C11.2008 13.7316 9.91129 14.154 8.58145 14.1528"
            fill="white" />
        <path d="M38.7579 1.29513H35.9369V16.0879H38.7579V1.29513Z" fill="white" />
        <path
            d="M54.3168 11.9816L45.7696 1.29513H42.9484V16.0879H45.7696V5.51943L54.3168 16.0879H57.1381V1.29513H54.3168V11.9816Z"
            fill="white" />
        <path
            d="M24.3732 3.35341C25.4688 3.35499 26.5413 3.64368 27.4659 4.18582C28.3905 4.72796 29.129 5.50126 29.5955 6.41563C30.062 7.33001 30.2372 8.34782 30.1008 9.35052C29.9644 10.3532 29.5219 11.2995 28.8249 12.0792H32.1637C32.9973 10.454 33.2079 8.61595 32.761 6.86596C32.3141 5.11597 31.2362 3.55782 29.7039 2.44673C28.1715 1.33564 26.2755 0.737474 24.3264 0.750199C22.3773 0.762923 20.4907 1.3858 18.9756 2.51678L20.7507 4.53911C21.779 3.76771 23.0644 3.34712 24.3899 3.34829"
            fill="white" />
        <path
            d="M24.3742 14.0143C23.2776 14.0148 22.2036 13.7274 21.2776 13.1856C20.3517 12.6439 19.612 11.8702 19.1451 10.955C18.6782 10.0399 18.5034 9.02103 18.641 8.01759C18.7787 7.01416 19.2232 6.06759 19.9225 5.28855H16.5837C15.7525 6.91302 15.5433 8.74956 15.9905 10.4979C16.4377 12.2462 17.5148 13.8029 19.0456 14.9133C20.5764 16.0237 22.4703 16.6222 24.4177 16.6109C26.3651 16.5995 28.2508 15.9791 29.7663 14.851L27.9912 12.8286C26.9635 13.5971 25.6804 14.0158 24.3575 14.0143"
            fill="white" />
    </g>
</svg>