<svg width="17" height="17" viewBox="0 0 17 17" fill="none" xmlns="http://www.w3.org/2000/svg">
<path id="Vector" d="M8.5 0C8.78179 0 9.05204 0.111942 9.2513 0.311199C9.45056 0.510457 9.5625 0.780707 9.5625 1.0625V7.4375H15.9375C16.2193 7.4375 16.4895 7.54944 16.6888 7.7487C16.8881 7.94796 17 8.21821 17 8.5C17 8.78179 16.8881 9.05204 16.6888 9.2513C16.4895 9.45056 16.2193 9.5625 15.9375 9.5625H9.5625V15.9375C9.5625 16.2193 9.45056 16.4895 9.2513 16.6888C9.05204 16.8881 8.78179 17 8.5 17C8.21821 17 7.94796 16.8881 7.7487 16.6888C7.54944 16.4895 7.4375 16.2193 7.4375 15.9375V9.5625H1.0625C0.780707 9.5625 0.510457 9.45056 0.311199 9.2513C0.111942 9.05204 0 8.78179 0 8.5C0 8.21821 0.111942 7.94796 0.311199 7.7487C0.510457 7.54944 0.780707 7.4375 1.0625 7.4375H7.4375V1.0625C7.4375 0.780707 7.54944 0.510457 7.7487 0.311199C7.94796 0.111942 8.21821 0 8.5 0Z" fill="#07EAD3"/>
</svg>
